<svg xmlns="http://www.w3.org/2000/svg" width="26" height="26" viewBox="0 0 26 26">
  <g id="_4" data-name="4" transform="translate(-850 -192)">
    <path id="Subtraction_7" data-name="Subtraction 7" d="M13453.594-2236.38h-17.409a.849.849,0,0,1-.851-.844v-1.972a.85.85,0,0,1,.851-.848h17.409a.851.851,0,0,1,.852.848v1.972A.849.849,0,0,1,13453.594-2236.38Zm-17.409-3.1a.282.282,0,0,0-.283.28v1.972a.286.286,0,0,0,.283.28h17.409a.284.284,0,0,0,.287-.28v-1.972a.284.284,0,0,0-.287-.28Zm10.473,1.831a.566.566,0,0,1-.563-.567.563.563,0,0,1,.563-.561.566.566,0,0,1,.571.561A.57.57,0,0,1,13446.657-2237.647Zm-1.7,0a.566.566,0,0,1-.564-.567.563.563,0,0,1,.564-.561.565.565,0,0,1,.567.561A.568.568,0,0,1,13444.959-2237.647Zm-1.7,0a.568.568,0,0,1-.567-.567.565.565,0,0,1,.567-.561.563.563,0,0,1,.564.561A.566.566,0,0,1,13443.26-2237.647Zm-1.7,0a.566.566,0,0,1-.564-.567.563.563,0,0,1,.564-.561.565.565,0,0,1,.567.561A.568.568,0,0,1,13441.562-2237.647Zm-1.7,0a.568.568,0,0,1-.567-.567.565.565,0,0,1,.567-.561.57.57,0,0,1,.563.561A.566.566,0,0,1,13439.866-2237.647Zm-1.7,0a.56.56,0,0,1-.564-.567.563.563,0,0,1,.564-.561.565.565,0,0,1,.567.561A.568.568,0,0,1,13438.164-2237.647Zm15.43-3.1h-17.409a.849.849,0,0,1-.851-.844v-1.972a.849.849,0,0,1,.851-.844h17.409a.849.849,0,0,1,.852.844v1.972A.849.849,0,0,1,13453.594-2240.747Zm-17.409-3.1a.282.282,0,0,0-.283.28v1.972a.284.284,0,0,0,.283.284h17.409a.289.289,0,0,0,.287-.284v-1.972a.284.284,0,0,0-.287-.28Zm10.473,1.831a.564.564,0,0,1-.563-.564.564.564,0,0,1,.563-.564.568.568,0,0,1,.571.564A.568.568,0,0,1,13446.657-2242.013Zm-1.7,0a.565.565,0,0,1-.564-.564.565.565,0,0,1,.564-.564.567.567,0,0,1,.567.564A.567.567,0,0,1,13444.959-2242.013Zm-1.7,0a.564.564,0,0,1-.563-.564.564.564,0,0,1,.563-.564.565.565,0,0,1,.564.564A.565.565,0,0,1,13443.26-2242.013Zm-1.7,0a.565.565,0,0,1-.564-.564.565.565,0,0,1,.564-.564.567.567,0,0,1,.567.564A.567.567,0,0,1,13441.562-2242.013Zm-1.7,0a.567.567,0,0,1-.567-.564.567.567,0,0,1,.567-.564.564.564,0,0,1,.563.564A.564.564,0,0,1,13439.866-2242.013Zm-1.7,0a.565.565,0,0,1-.564-.564.565.565,0,0,1,.564-.564.567.567,0,0,1,.567.564A.567.567,0,0,1,13438.164-2242.013Zm6.724-3.242a5.58,5.58,0,0,1-5.589-5.559,5.583,5.583,0,0,1,5.589-5.565,5.587,5.587,0,0,1,5.6,5.565A5.583,5.583,0,0,1,13444.888-2245.256Zm0-10.56a4.952,4.952,0,0,0-1.952.4,4.973,4.973,0,0,0-1.6,1.071,5.026,5.026,0,0,0-1.077,1.587,5,5,0,0,0-.392,1.948,4.939,4.939,0,0,0,.392,1.942,4.948,4.948,0,0,0,1.077,1.591,4.94,4.94,0,0,0,1.6,1.074,4.981,4.981,0,0,0,1.952.392,5.046,5.046,0,0,0,1.959-.392,4.9,4.9,0,0,0,1.6-1.074,5.006,5.006,0,0,0,1.078-1.591,4.939,4.939,0,0,0,.392-1.942,5,5,0,0,0-.392-1.948,5,5,0,0,0-1.078-1.587,4.92,4.92,0,0,0-1.6-1.071A5,5,0,0,0,13444.888-2255.816Zm.064,9.534a4.493,4.493,0,0,1-3.735-2l.094-.042.084-.037.064-.029.112-.05.058-.024.021-.011.012-.005c.314-.139.612-.271.923-.379a2.211,2.211,0,0,0,.926-.6,1.277,1.277,0,0,1,.115-.1.451.451,0,0,0,.169-.2.467.467,0,0,0-.068-.277l-.008-.021-.012-.029c-.013-.032-.022-.057-.031-.082-.013-.043-.029-.089-.046-.133l-.008-.019-.04-.118a.831.831,0,0,0-.236-.358.963.963,0,0,1-.317-.861.164.164,0,0,1,.026-.1c.079-.056.074-.124.061-.206l0-.025V-2252a.1.1,0,0,0,0-.017v-.012c-.007-.079-.014-.161-.023-.241l0-.034c-.021-.233-.044-.5-.048-.756a1.312,1.312,0,0,1,.75-1.243,2.551,2.551,0,0,1,1.2-.314,2.464,2.464,0,0,1,1.28.375,1.276,1.276,0,0,1,.646,1.138c0,.231-.021.469-.043.7v.008l-.007.077v.027c-.008.079-.016.16-.022.24l0,.022-.006.066,0,.027v.009a.172.172,0,0,0,.045.15.25.25,0,0,1,.061.176.892.892,0,0,1-.276.756,1.1,1.1,0,0,0-.328.544l-.021.051-.023.062-.019.05-.038.107c-.02.056-.042.12-.068.189a.108.108,0,0,0,.027.145c.049.046.1.1.163.16l.013.013.026.027.058.055c.111.109.226.219.345.32a1.019,1.019,0,0,0,.256.139l.015.006c.037.017.07.03.1.044l.151.065.02.008c.145.062.295.126.443.187l.064.027c.188.078.424.175.645.27.04.019.083.039.125.064l.031.013a.358.358,0,0,0,.067.037,4.417,4.417,0,0,1-3.458,1.976h-.011C13445.145-2246.286,13445.051-2246.282,13444.952-2246.282Z" transform="translate(-12581.889 2451.379)" fill="#fff"/>
    <path id="Rectangle_261" data-name="Rectangle 261" d="M2.731.437A2.294,2.294,0,0,0,.437,2.731V23.269a2.294,2.294,0,0,0,2.294,2.294H23.269a2.294,2.294,0,0,0,2.294-2.294V2.731A2.294,2.294,0,0,0,23.269.437H2.731m0-.437H23.269A2.731,2.731,0,0,1,26,2.731V23.269A2.731,2.731,0,0,1,23.269,26H2.731A2.731,2.731,0,0,1,0,23.269V2.731A2.731,2.731,0,0,1,2.731,0Z" transform="translate(850 192)" fill="#fff"/>
  </g>
</svg>
