<svg xmlns="http://www.w3.org/2000/svg" width="24.719" height="25.999" viewBox="0 0 24.719 25.999">
  <path id="_3" data-name="3" d="M13458.95-2230.379h-22.516a1.1,1.1,0,0,1-1.1-1.1v-2.561a1.1,1.1,0,0,1,1.1-1.1h22.516a1.1,1.1,0,0,1,1.1,1.1v2.561A1.1,1.1,0,0,1,13458.95-2230.379Zm-22.516-4.028a.368.368,0,0,0-.369.365v2.561a.368.368,0,0,0,.369.365h22.516a.367.367,0,0,0,.368-.365v-2.561a.367.367,0,0,0-.368-.365Zm13.545,2.379a.734.734,0,0,1-.729-.737.73.73,0,0,1,.729-.73.732.732,0,0,1,.733.73A.736.736,0,0,1,13449.979-2232.028Zm-2.2,0a.734.734,0,0,1-.729-.737.73.73,0,0,1,.729-.73.73.73,0,0,1,.729.73A.734.734,0,0,1,13447.783-2232.028Zm-2.2,0a.737.737,0,0,1-.736-.737.734.734,0,0,1,.736-.73.73.73,0,0,1,.729.73A.734.734,0,0,1,13445.587-2232.028Zm-2.2,0a.735.735,0,0,1-.73-.737.731.731,0,0,1,.73-.73.732.732,0,0,1,.733.73A.736.736,0,0,1,13443.388-2232.028Zm-2.2,0a.734.734,0,0,1-.729-.737.73.73,0,0,1,.729-.73.732.732,0,0,1,.733.73A.736.736,0,0,1,13441.191-2232.028Zm-2.2,0a.725.725,0,0,1-.729-.737.73.73,0,0,1,.729-.73.73.73,0,0,1,.729.73A.734.734,0,0,1,13439-2232.028Zm19.955-4.027h-22.516a1.1,1.1,0,0,1-1.1-1.1v-2.561a1.1,1.1,0,0,1,1.1-1.1h22.516a1.1,1.1,0,0,1,1.1,1.1v2.561A1.1,1.1,0,0,1,13458.95-2236.056Zm-22.516-4.031a.369.369,0,0,0-.369.368v2.561a.369.369,0,0,0,.369.368h22.516a.373.373,0,0,0,.368-.368v-2.561a.369.369,0,0,0-.368-.368Zm13.545,2.382a.732.732,0,0,1-.729-.733.732.732,0,0,1,.729-.733.734.734,0,0,1,.733.733A.734.734,0,0,1,13449.979-2237.7Zm-2.2,0a.732.732,0,0,1-.729-.733.732.732,0,0,1,.729-.733.732.732,0,0,1,.729.733A.732.732,0,0,1,13447.783-2237.7Zm-2.2,0a.734.734,0,0,1-.733-.733.734.734,0,0,1,.733-.733.732.732,0,0,1,.729.733A.732.732,0,0,1,13445.587-2237.7Zm-2.2,0a.733.733,0,0,1-.73-.733.733.733,0,0,1,.73-.733.734.734,0,0,1,.733.733A.734.734,0,0,1,13443.388-2237.7Zm-2.2,0a.732.732,0,0,1-.729-.733.732.732,0,0,1,.729-.733.734.734,0,0,1,.733.733A.734.734,0,0,1,13441.191-2237.7Zm-2.2,0a.732.732,0,0,1-.729-.733.732.732,0,0,1,.729-.733.732.732,0,0,1,.729.733A.732.732,0,0,1,13439-2237.7Zm8.7-4.213a7.237,7.237,0,0,1-7.23-7.227,7.24,7.24,0,0,1,7.23-7.234,7.242,7.242,0,0,1,7.233,7.234A7.238,7.238,0,0,1,13447.692-2241.918Zm0-13.728a6.433,6.433,0,0,0-2.527.51,6.5,6.5,0,0,0-2.068,1.392,6.513,6.513,0,0,0-1.4,2.064,6.52,6.52,0,0,0-.51,2.534,6.481,6.481,0,0,0,.51,2.527,6.512,6.512,0,0,0,1.4,2.068,6.424,6.424,0,0,0,2.068,1.392,6.433,6.433,0,0,0,2.527.51,6.469,6.469,0,0,0,2.53-.51,6.447,6.447,0,0,0,2.064-1.392,6.528,6.528,0,0,0,1.392-2.068,6.468,6.468,0,0,0,.511-2.527,6.51,6.51,0,0,0-.511-2.534,6.449,6.449,0,0,0-1.392-2.064,6.447,6.447,0,0,0-2.064-1.392A6.49,6.49,0,0,0,13447.692-2255.646Zm.081,12.393a5.8,5.8,0,0,1-4.832-2.6l.46-.2.07-.034h.011l.023-.01c.408-.185.794-.359,1.2-.5a2.8,2.8,0,0,0,1.2-.784.864.864,0,0,1,.1-.087l.022-.019.03-.026a.561.561,0,0,0,.22-.26.629.629,0,0,0-.083-.345l0-.013c-.018-.041-.031-.078-.045-.114l-.01-.024-.013-.034-.032-.091,0-.015c-.009-.023-.017-.046-.024-.069l-.006-.02-.058-.155a1.006,1.006,0,0,0-.3-.466,1.264,1.264,0,0,1-.408-1.118c0-.017,0-.1.037-.128a.239.239,0,0,0,.077-.267l0-.036,0-.032c0-.016,0-.031,0-.047s0-.032,0-.048c0-.065-.012-.15-.022-.236-.025-.28-.061-.664-.064-1.031a1.7,1.7,0,0,1,.967-1.612,3.28,3.28,0,0,1,1.547-.412,3.2,3.2,0,0,1,1.655.49,1.652,1.652,0,0,1,.832,1.477c0,.341-.031.686-.062,1.019l0,.039c-.007.071-.013.142-.019.212s-.012.142-.019.213l0,.034v.007a.205.205,0,0,0,.059.2.332.332,0,0,1,.074.226,1.168,1.168,0,0,1-.357.987,1.491,1.491,0,0,0-.423.706l-.027.068c-.026.069-.062.165-.1.284-.031.081-.062.162-.092.247a.144.144,0,0,0,.037.189c.042.038.082.078.121.117l.018.017.037.037c.018.017.033.033.051.049l.037.037.01.009c.168.168.333.332.507.48a1.261,1.261,0,0,0,.3.169l.047.021.046.019.018.007.072.031.15.064.178.076.469.2.081.034c.26.107.524.219.835.351.028.012.061.028.1.05l.013.006.05.025.037.02a.758.758,0,0,0,.088.047,5.708,5.708,0,0,1-4.474,2.568C13448.025-2243.256,13447.9-2243.252,13447.773-2243.252Z" transform="translate(-13435.333 2256.379)" fill="#fff"/>
</svg>
